<svg width="24" height="24" viewBox="0 0 24 24" fill="none" xmlns="http://www.w3.org/2000/svg">
<path d="M0.680422 5.96606L10.5046 0.371773C11.3548 -0.123924 12.4175 -0.123924 13.2913 0.371773L23.2808 5.98967C23.7767 6.27293 24.0601 6.83944 23.9892 7.40595L23.6822 9.57758C22.7612 16.0452 18.4159 21.4979 12.323 23.8348C12.0632 23.9292 11.7562 23.9292 11.4965 23.8348C5.47443 21.4743 1.19997 16.0452 0.326185 9.64839L0.0191824 7.38234C-0.0752808 6.81583 0.18449 6.24932 0.680422 5.96606Z" fill="#185195"/>
<path d="M18.7008 11.1355L12.0884 17.2963C11.1674 18.146 9.7268 18.0988 8.90025 17.1782L7.34161 15.5023L15.6308 7.7836C16.5518 6.93383 17.9923 6.98104 18.8189 7.90162C19.6691 8.84581 19.6218 10.2857 18.7008 11.1355Z" fill="#113969"/>
<path d="M15.4178 14.204L12.1116 17.2962C11.1905 18.146 9.74998 18.0988 8.92343 17.1782L5.82975 13.8736C4.97958 12.953 5.02681 11.5131 5.94782 10.6869C6.39653 10.262 6.98693 10.0732 7.57732 10.0968C8.1441 10.1204 8.71087 10.3565 9.13596 10.805L10.671 12.4573L12.2296 14.1332C13.0562 15.0302 14.4968 15.0774 15.4178 14.204Z" fill="#113969"/>
<path opacity="0.4" d="M23.9658 7.47681L23.6588 9.64843C22.7378 16.1161 18.3925 21.5688 12.2996 23.9292C12.0399 24.0236 11.7329 24.0236 11.4731 23.9292C7.60009 22.4185 4.43557 19.6332 2.45184 16.1161C4.45919 19.1847 7.38754 21.616 10.9063 22.985C11.1661 23.1031 11.4731 23.1031 11.7329 22.985C17.8257 20.6246 22.171 15.1719 23.0921 8.72785L23.3991 6.55622C23.4227 6.41459 23.4227 6.29657 23.3991 6.15495C23.8242 6.4382 24.0367 6.9575 23.9658 7.47681Z" fill="url(#paint0_linear_1976_42705)"/>
<path d="M18.369 10.5217L11.7566 16.6825C10.8355 17.5323 9.39497 17.4851 8.56842 16.5645L7.00977 14.8885L15.2989 7.16983C16.2199 6.32006 17.6605 6.36727 18.4871 7.28785C19.3372 8.25564 19.29 9.69553 18.369 10.5217Z" fill="white"/>
<path d="M15.0859 13.6139L11.7797 16.7061C10.8587 17.5559 9.41812 17.5087 8.59156 16.5881L5.4979 13.2835C4.64773 12.3629 4.69496 10.923 5.61598 10.0968C6.06468 9.67196 6.65506 9.48312 7.24546 9.50672C7.81224 9.53033 8.37903 9.76637 8.80411 10.2149L10.3391 11.8672L11.8978 13.5431C12.7243 14.4165 14.1649 14.4873 15.0859 13.6139Z" fill="white"/>
<defs>
<linearGradient id="paint0_linear_1976_42705" x1="12.3782" y1="15.2684" x2="16.7167" y2="6.79662" gradientUnits="userSpaceOnUse">
<stop stop-color="#113969"/>
<stop offset="1" stop-color="#113969" stop-opacity="0"/>
</linearGradient>
</defs>
</svg>
