<svg width="24" height="26" viewBox="0 0 24 26" fill="none" xmlns="http://www.w3.org/2000/svg">
<path d="M12 9.01562L17.0156 4.98438V21.0156L12 16.9844H9V21.0156C9 21.2969 8.90625 21.5312 8.71875 21.7188C8.53125 21.9062 8.29688 22 8.01562 22H6C5.71875 22 5.48438 21.9062 5.29688 21.7188C5.10938 21.5312 5.01562 21.2969 5.01562 21.0156V16.9844H3.98438C3.42188 16.9844 2.95312 16.7969 2.57812 16.4219C2.20312 16.0469 2.01562 15.5781 2.01562 15.0156V10.9844C2.01562 10.4219 2.20312 9.95312 2.57812 9.57812C2.95312 9.20312 3.42188 9.01562 3.98438 9.01562H12ZM21.5156 13C21.4844 12.125 21.25 11.3438 20.8125 10.6562C20.375 9.9375 19.7656 9.39062 18.9844 9.01562V16.9844C19.7656 16.6094 20.375 16.0781 20.8125 15.3906C21.25 14.6719 21.4844 13.875 21.5156 13Z" fill="#4B5963"/>
</svg>
