<svg width="24" height="26" viewBox="0 0 24 26" fill="none" xmlns="http://www.w3.org/2000/svg">
<path d="M12 3.01562C14.8438 3.07812 17.2031 4.04688 19.0781 5.92188C20.9531 7.79688 21.9219 10.1562 21.9844 13C21.9219 15.8438 20.9531 18.2031 19.0781 20.0781C17.2031 21.9531 14.8438 22.9219 12 22.9844C9.15625 22.9219 6.79688 21.9531 4.92188 20.0781C3.04688 18.2031 2.07812 15.8438 2.01562 13C2.07812 10.1562 3.04688 7.79688 4.92188 5.92188C6.79688 4.04688 9.15625 3.07812 12 3.01562ZM11.0156 17.5L18 10.5156L16.5938 9.10938L11.0156 14.6875L7.92188 11.5938L6.51562 13L11.0156 17.5Z" fill="#4B5963"/>
</svg>
