<svg width="20" height="20" viewBox="0 0 20 20" fill="none" xmlns="http://www.w3.org/2000/svg">
<path d="M7 19.9844C6.71875 19.9844 6.48438 19.8906 6.29688 19.7031C6.10938 19.5156 6.01562 19.2812 6.01562 19V16H1.98438C1.42188 16 0.953125 15.8125 0.578125 15.4375C0.203125 15.0312 0.015625 14.5469 0.015625 13.9844V1.98438C0.015625 1.42188 0.203125 0.953125 0.578125 0.578125C0.953125 0.203125 1.42188 0.015625 1.98438 0.015625H18.0156C18.5781 0.015625 19.0469 0.203125 19.4219 0.578125C19.7969 0.953125 19.9844 1.42188 19.9844 1.98438V13.9844C19.9844 14.5469 19.7969 15.0312 19.4219 15.4375C19.0469 15.8125 18.5781 16 18.0156 16H11.9219L8.21875 19.7031C8 19.8906 7.76562 19.9844 7.51562 19.9844H7ZM7.98438 13L16 4.98438L14.5938 3.57812L7.98438 10.1875L5.40625 7.60938L4 9.01562L7.98438 13Z" fill="#4B5963"/>
</svg>
