<svg width="20" height="20" viewBox="0 0 20 20" fill="none" xmlns="http://www.w3.org/2000/svg">
<path d="M1.98438 0.015625H18.0156C18.5781 0.015625 19.0469 0.203125 19.4219 0.578125C19.7969 0.953125 19.9844 1.42188 19.9844 1.98438V13.9844C19.9844 14.5469 19.7969 15.0312 19.4219 15.4375C19.0469 15.8125 18.5781 16 18.0156 16H11.9219L8.21875 19.7031C8 19.8906 7.76562 19.9844 7.51562 19.9844H7C6.71875 19.9844 6.48438 19.8906 6.29688 19.7031C6.10938 19.5156 6.01562 19.2812 6.01562 19V16H1.98438C1.42188 16 0.953125 15.8125 0.578125 15.4375C0.203125 15.0312 0.015625 14.5469 0.015625 13.9844V1.98438C0.015625 1.42188 0.203125 0.953125 0.578125 0.578125C0.953125 0.203125 1.42188 0.015625 1.98438 0.015625ZM10.1875 3.48438C9.3125 3.48438 8.59375 3.67188 8.03125 4.04688C7.46875 4.42188 7.21875 4.96875 7.28125 5.6875H9.25C9.25 5.40625 9.34375 5.20312 9.53125 5.07812C9.71875 4.92188 9.95312 4.84375 10.2344 4.84375C10.5156 4.84375 10.75 4.9375 10.9375 5.125C11.125 5.28125 11.2188 5.5 11.2188 5.78125C11.2188 6.0625 11.1406 6.3125 10.9844 6.53125C10.8281 6.75 10.625 6.9375 10.375 7.09375C9.84375 7.40625 9.48438 7.6875 9.29688 7.9375C9.10938 8.15625 9.01562 8.51562 9.01562 9.01562H10.9844C10.9844 8.73438 11.0312 8.51562 11.125 8.35938C11.2188 8.17188 11.3906 8 11.6406 7.84375C12.1094 7.625 12.4844 7.34375 12.7656 7C13.0781 6.625 13.2344 6.21875 13.2344 5.78125C13.2344 5.09375 12.9531 4.54688 12.3906 4.14062C11.8594 3.70313 11.125 3.48438 10.1875 3.48438ZM9.01562 10V12.0156H10.9844V10H9.01562Z" fill="#4B5963"/>
</svg>
