<svg width="24" height="26" viewBox="0 0 24 26" fill="none" xmlns="http://www.w3.org/2000/svg">
<path d="M12 21.0156C14 20.9531 15.6562 20.2656 16.9688 18.9531C18.2812 17.6406 18.9531 15.9844 18.9844 13.9844C18.9531 12.0156 18.2812 10.375 16.9688 9.0625C15.6562 7.75 14 7.0625 12 7C10 7.0625 8.34375 7.75 7.03125 9.0625C5.71875 10.375 5.04688 12.0156 5.01562 13.9844C5.04688 15.9844 5.71875 17.6406 7.03125 18.9531C8.34375 20.2656 10 20.9531 12 21.0156ZM19.0312 8.40625C19.6562 9.15625 20.1406 10.0156 20.4844 10.9844C20.8281 11.9219 21 12.9219 21 13.9844C20.9375 16.5469 20.0625 18.6719 18.375 20.3594C16.6875 22.0469 14.5625 22.9219 12 22.9844C9.4375 22.9219 7.3125 22.0469 5.625 20.3594C3.9375 18.6719 3.0625 16.5469 3 13.9844C3.0625 11.4531 3.9375 9.34375 5.625 7.65625C7.3125 5.9375 9.4375 5.04687 12 4.98438C13.0625 4.98438 14.0625 5.17188 15 5.54688C15.9688 5.89062 16.8438 6.375 17.625 7L19.0312 5.54688C19.5312 5.98437 20 6.45312 20.4375 6.95312L19.0312 8.40625ZM11.0156 15.0156V9.01562H12.9844V15.0156H11.0156ZM15 1.98438V4H9V1.98438H15Z" fill="#4B5963"/>
</svg>
